# xmcd CD database file
#
# Track frame offsets:
#	150
#	22052
#	49292
#	69421
#	88946
#	109160
#	123418
#	137514
#	152743
#	172063
#	188563
#	208491
#
# Disc length: 3061 seconds
#
# Revision: 0
# Processed by: cddbd v1.5.1PL0 Copyright (c) Steve Scherf et al.
# Submitted via: CDex 1.51
#
DISCID=b10bf30c
DTITLE=Piney Brown - My Task
DYEAR=2003
DGENRE=Blues
TTITLE0=Mission Impossible
TTITLE1=Nothing Seems To Satisfy You
TTITLE2=My Task
TTITLE3=Teardrops From My Eyes
TTITLE4=Don't Worry 'Bout Today (Think About Tomorrow)
TTITLE5=Love Can Make The World Go Round
TTITLE6=Old Time Love (Good Time Love)
TTITLE7=Got So Much Love
TTITLE8=You Make My Day
TTITLE9=For You My Love
TTITLE10=Our Love Is Heaven
TTITLE11=Your Mama Give You Something
EXTD=YEAR: 2003
EXTT0=
EXTT1=
EXTT2=
EXTT3=
EXTT4=
EXTT5=
EXTT6=
EXTT7=
EXTT8=
EXTT9=
EXTT10=
EXTT11=
PLAYORDER=
